<svg width="160" height="160" viewBox="0 0 160 160" version="1.1" xmlns="http://www.w3.org/2000/svg" xmlns:xlink="http://www.w3.org/1999/xlink">
<title>Logo icon</title>
<desc>Created using Figma</desc>
<g id="Canvas" transform="matrix(2 0 0 2 1110 672)">
<g id="Logo icon">
<g id="drawing">
<g id="Vector">
<use xlink:href="#path0_fill" transform="translate(-544.062 -287.839)" fill="#B25A36"/>
</g>
<g id="Vector">
<use xlink:href="#path1_fill" transform="translate(-544.361 -324.014)" fill="#D29D7B"/>
</g>
<g id="Vector">
<use xlink:href="#path2_fill" transform="translate(-544.439 -336)" fill="#85AE65"/>
</g>
<g id="Vector">
<use xlink:href="#path3_fill" transform="translate(-555 -335.946)" fill="#465052"/>
</g>
</g>
</g>
</g>
<defs>
<path id="path0_fill" fill-rule="evenodd" d="M 30.1484 0.675898C 28.5514 1.6029 28.9834 1.5919 27.5034 0.7419C 26.0154 -0.1131 26.0644 -0.1091 25.7154 0.5749C 25.5624 0.8739 25.1104 1.6609 24.7134 2.3219C 23.8364 3.7779 23.8394 3.6379 24.6784 4.1099C 25.2484 4.4299 25.4864 4.7019 26.0364 5.6599L 26.7034 6.8219L 26.7034 12.3459L 26.7034 17.8679L 28.9894 17.8679L 31.2764 17.8679L 31.2764 12.2939L 31.2764 6.7199L 31.6494 6.0499C 32.5224 4.4839 32.7584 4.1469 33.1144 3.9539C 33.9264 3.5129 33.9384 3.6079 32.8314 1.6889C 31.6254 -0.402102 31.8574 -0.315102 30.1484 0.675898ZM 1.12337 18.8919C -0.294625 19.4539 -0.278623 19.4059 0.660377 20.3169C 1.44538 21.0779 1.63938 21.1759 5.12538 22.5759C 9.68738 24.4079 13.5604 25.9699 18.4154 27.9319C 30.4324 32.7919 27.6674 32.7069 37.9924 28.5339C 43.6554 26.2449 48.3784 24.3379 52.2834 22.7649C 54.5224 21.8629 56.4024 21.0799 56.4594 21.0259C 56.5534 20.9389 55.9444 19.1899 55.6754 18.7729C 55.6004 18.6569 54.9484 18.8599 53.4614 19.4629C 52.3024 19.9329 49.2004 21.1869 46.5664 22.2479C 43.9334 23.3099 40.4614 24.7099 38.8504 25.3609C 30.3464 28.7949 29.1054 29.2859 28.9384 29.2859C 28.8384 29.2859 27.3144 28.7029 25.5504 27.9899C 22.2234 26.6439 15.6724 23.9979 10.4844 21.9029C 8.83337 21.2369 6.35738 20.2409 4.98238 19.6909C 3.60638 19.1399 2.41638 18.6399 2.33838 18.5789C 2.25938 18.5179 1.71337 18.6589 1.12337 18.8919Z"/>
<path id="path1_fill" fill-rule="evenodd" d="M 58.3231 0.211163C 58.3511 0.327163 57.9501 0.570165 57.2621 0.853165C 55.9511 1.39217 55.9811 1.20816 56.8521 3.32316C 57.2351 4.25616 58.4321 7.20216 59.5111 9.87116C 63.4261 19.5572 65.2961 24.1792 66.0051 25.9272C 66.8951 28.1222 66.9101 27.7812 65.8141 30.4652C 64.9551 32.5702 63.1181 37.1112 59.9701 44.9092C 59.2261 46.7542 58.0591 49.6412 57.3791 51.3252C 56.6981 53.0082 56.0761 54.4652 55.9971 54.5602C 55.8991 54.6782 55.9001 54.8192 56.0001 54.9952C 56.5681 55.9962 56.8751 57.1112 56.6311 57.2892C 56.4961 57.3882 56.4521 57.4682 56.5341 57.4682C 57.3031 57.4682 58.5711 55.5832 59.7221 52.7282C 60.8881 49.8412 63.8351 42.5532 65.9451 37.3452C 70.0041 27.3242 69.8231 28.1682 68.5741 25.0842C 65.8391 18.3342 63.6321 12.8732 59.9451 3.73417C 58.7701 0.822166 58.1341 -0.560837 58.3231 0.211163ZM 18.2851 24.4292L 18.2851 26.6412L 20.9291 26.6412L 23.5721 26.6412L 23.5721 24.4292L 23.5721 22.2172L 20.9291 22.2172L 18.2851 22.2172L 18.2851 24.4292ZM 35.0051 24.4292L 35.0051 26.6412L 37.6481 26.6412L 40.2921 26.6412L 40.2921 24.4292L 40.2921 22.2172L 37.6481 22.2172L 35.0051 22.2172L 35.0051 24.4292ZM 20.4291 31.2792L 20.4291 33.4912L 22.0001 33.4912L 23.5721 33.4912L 23.5721 31.2792L 23.5721 29.0682L 22.0001 29.0682L 20.4291 29.0682L 20.4291 31.2792ZM 35.0051 31.2792L 35.0051 33.4912L 36.5771 33.4912L 38.1481 33.4912L 38.1481 31.2792L 38.1481 29.0682L 36.5771 29.0682L 35.0051 29.0682L 35.0051 31.2792ZM 0.779114 56.4702C 1.24611 56.9412 1.66011 57.3262 1.69911 57.3262C 1.73911 57.3262 1.38911 56.9412 0.923111 56.4702C 0.455111 55.9992 0.0421132 55.6132 0.0031132 55.6132C -0.0368868 55.6132 0.313114 55.9992 0.779114 56.4702ZM 14.1401 59.4432C 14.2591 59.5162 14.5161 59.6182 14.7121 59.6702C 14.9611 59.7372 15.0041 59.7252 14.8561 59.6332C 14.7371 59.5602 14.4801 59.4582 14.2841 59.4062C 14.0351 59.3392 13.9921 59.3502 14.1401 59.4432ZM 41.5071 63.3962C 41.1491 63.5692 41.1371 63.5882 41.4351 63.5152C 41.8401 63.4162 42.2951 63.1852 42.0781 63.1882C 42.0001 63.1892 41.7421 63.2832 41.5071 63.3962ZM 20.7141 65.0092C 20.8321 65.0822 21.0901 65.1842 21.2861 65.2362C 21.5341 65.3032 21.5781 65.2912 21.4281 65.1992C 21.3111 65.1262 21.0541 65.0242 20.8571 64.9722C 20.6091 64.9052 20.5651 64.9162 20.7141 65.0092ZM 28.6141 67.9922C 28.9901 68.0212 29.5691 68.0212 29.9001 67.9912C 30.2321 67.9612 29.9251 67.9372 29.2171 67.9372C 28.5101 67.9382 28.2381 67.9622 28.6141 67.9922Z"/>
<path id="path2_fill" fill-rule="evenodd" d="M 28.759 0.0550003C 29.093 0.0850003 29.64 0.0850003 29.973 0.0550003C 30.308 0.0250003 30.034 0 29.366 0C 28.698 0 28.425 0.0250003 28.759 0.0550003ZM 0.853001 11.546L -2.99072e-06 12.438L 0.925 11.582C 1.434 11.111 1.879 10.709 1.914 10.689C 1.948 10.67 1.915 10.654 1.842 10.654C 1.767 10.654 1.322 11.055 0.853001 11.546ZM 56.817 10.689C 56.852 10.709 57.168 10.982 57.52 11.297L 58.161 11.867L 57.597 11.261C 57.286 10.927 56.969 10.654 56.894 10.654C 56.818 10.654 56.784 10.67 56.817 10.689ZM 24.543 19.325C 27.196 19.346 31.536 19.346 34.189 19.325C 36.842 19.302 34.672 19.284 29.366 19.284C 24.062 19.284 21.891 19.302 24.543 19.325ZM 21.328 27.888C 25.749 27.908 32.984 27.908 37.405 27.888C 41.825 27.866 38.209 27.849 29.366 27.849C 20.525 27.849 16.907 27.866 21.328 27.888ZM 23.65 39.983L 23.65 46.191L 29.366 46.191L 35.083 46.191L 35.083 39.983L 35.083 33.775L 29.366 33.775L 23.65 33.775L 23.65 39.983Z"/>
<path id="path3_fill" fill-rule="evenodd" d="M 37.8549 0.404658C 36.9559 0.784658 31.6489 2.93066 15.8549 9.29966C 11.2739 11.1467 11.0439 11.3387 9.85986 14.3067C 9.43686 15.3687 8.54486 17.5857 7.87786 19.2347C 7.21086 20.8827 5.65186 24.7357 4.41386 27.7977C -1.17714 41.6167 -0.834141 39.0237 2.00586 46.0387C 4.78486 52.9027 7.71886 60.1597 9.34486 64.1907C 10.0739 65.9957 10.6829 67.4897 10.6979 67.5087C 10.7259 67.5437 12.9289 66.6857 13.0469 66.5967C 13.1119 66.5457 12.5059 64.9697 10.9419 61.1227C 9.92586 58.6197 7.83986 53.4657 3.98486 43.9247C 3.25686 42.1197 2.58586 40.4817 2.49686 40.2847C 2.35386 39.9727 2.47587 39.5777 3.49387 37.0737C 4.13287 35.5047 5.51086 32.1007 6.55686 29.5097C 8.81286 23.9257 12.2309 15.4727 12.7589 14.1767L 13.1329 13.2567L 15.7049 12.2037C 17.1199 11.6247 20.5599 10.2307 23.3509 9.10566C 26.1409 7.98166 30.6739 6.14966 33.4259 5.03566C 36.1759 3.92166 38.7799 2.87866 39.2129 2.71866L 39.9989 2.42666L 45.5719 4.67966C 53.6919 7.96266 60.6049 10.7527 63.8559 12.0597C 67.0209 13.3327 66.6779 13.2957 68.3819 12.5447L 69.0839 12.2357L 68.3309 11.4947C 67.4959 10.6727 67.9319 10.8707 59.2189 7.36166C 51.8689 4.40066 48.0089 2.83466 44.5719 1.42066C 40.8069 -0.128341 39.5599 -0.317342 37.8549 0.404658ZM 30.3529 16.9507L 30.3529 19.1627L 39.9269 19.1627L 49.5019 19.1627L 49.5019 16.9507L 49.5019 14.7387L 39.9269 14.7387L 30.3529 14.7387L 30.3529 16.9507ZM 28.6379 23.5157L 28.6379 25.7277L 39.9269 25.7277L 51.2169 25.7277L 51.2169 23.5157L 51.2169 21.3037L 39.9269 21.3037L 28.6379 21.3037L 28.6379 23.5157ZM 23.9219 30.0817L 23.9219 32.2927L 39.9269 32.2927L 55.9329 32.2927L 55.9329 30.0817L 55.9329 27.8687L 39.9269 27.8687L 23.9219 27.8687L 23.9219 30.0817Z"/>
</defs>
</svg>
